<svg width="24" height="24" viewBox="0 0 24 24" fill="none" xmlns="http://www.w3.org/2000/svg">
<path d="M8.03003 14.1848H4.62249C4.1922 14.1848 3.77946 14.3559 3.47518 14.6602C3.1709 14.9644 3 15.3772 3 15.8075V19.3773C3 19.8076 3.17091 20.2203 3.47518 20.5246C3.77945 20.8289 4.19221 20.9998 4.62249 20.9998H8.03003C8.46032 20.9998 8.87305 20.8288 9.17734 20.5246C9.48161 20.2203 9.65252 19.8075 9.65252 19.3773V15.8075C9.65252 15.3772 9.48161 14.9644 9.17734 14.6602C8.87306 14.3559 8.46031 14.1848 8.03003 14.1848ZM8.57085 19.3771V19.3773C8.57085 19.5206 8.51388 19.6582 8.41239 19.7596C8.3109 19.8611 8.17339 19.9181 8.03002 19.9181H4.62248C4.32386 19.9181 4.08166 19.6759 4.08166 19.3773V15.8075C4.08166 15.5089 4.32387 15.2667 4.62248 15.2667H8.03002C8.17339 15.2667 8.3109 15.3236 8.41239 15.4251C8.51388 15.5264 8.57085 15.6641 8.57085 15.8075V19.3771ZM8.03003 3H4.62249C4.1922 3 3.77946 3.17091 3.47518 3.47518C3.1709 3.77945 3 4.19221 3 4.62249V11.3292C3 11.7595 3.17091 12.1722 3.47518 12.4765C3.77945 12.7808 4.19221 12.9517 4.62249 12.9517H8.03003C8.46032 12.9517 8.87305 12.7808 9.17734 12.4765C9.48161 12.1722 9.65252 11.7595 9.65252 11.3292V4.62249C9.65252 4.1922 9.48161 3.77946 9.17734 3.47518C8.87306 3.1709 8.46031 3 8.03003 3ZM8.57085 11.3293C8.57085 11.4727 8.51388 11.6102 8.41239 11.7117C8.3109 11.8132 8.17339 11.8701 8.03002 11.8701H4.62248C4.32386 11.8701 4.08166 11.6279 4.08166 11.3293V4.6226C4.08166 4.32399 4.32387 4.08179 4.62248 4.08179H8.03002C8.17339 4.08179 8.3109 4.13876 8.41239 4.24024C8.51388 4.34173 8.57085 4.47925 8.57085 4.62261V11.3293ZM19.3775 10.1935H12.5085C12.0782 10.1935 11.6655 10.3644 11.3612 10.6687C11.0569 10.973 10.886 11.3857 10.886 11.816V19.3775C10.886 19.8078 11.057 20.2205 11.3612 20.5248C11.6655 20.829 12.0783 21 12.5085 21H19.3775C19.8078 21 20.2205 20.829 20.5248 20.5248C20.8291 20.2205 21 19.8077 21 19.3775V11.816C21 11.3857 20.8291 10.973 20.5248 10.6687C20.2205 10.3644 19.8078 10.1935 19.3775 10.1935ZM19.9183 19.3776C19.9183 19.5209 19.8614 19.6585 19.7599 19.7599C19.6584 19.8614 19.5209 19.9184 19.3775 19.9184H12.5085C12.2099 19.9184 11.9677 19.6762 11.9677 19.3776V11.8161C11.9677 11.5175 12.2099 11.2753 12.5085 11.2753H19.3775C19.5209 11.2753 19.6584 11.3323 19.7599 11.4337C19.8614 11.535 19.9183 11.6727 19.9183 11.8161V19.3776ZM19.3775 3H12.5085C12.0782 3 11.6655 3.17091 11.3612 3.47518C11.0569 3.77945 10.886 4.19221 10.886 4.62249V7.33777C10.886 7.76806 11.057 8.1808 11.3612 8.48508C11.6655 8.78936 12.0783 8.96026 12.5085 8.96026H19.3775C19.8078 8.96026 20.2205 8.78935 20.5248 8.48508C20.8291 8.18081 21 7.76805 21 7.33777V4.62249C21 4.1922 20.8291 3.77946 20.5248 3.47518C20.2205 3.1709 19.8078 3 19.3775 3ZM19.9183 7.33773C19.9183 7.4811 19.8614 7.61862 19.7599 7.72011C19.6584 7.82159 19.5209 7.87856 19.3775 7.87856H12.5085C12.2099 7.87856 11.9677 7.63635 11.9677 7.33774V4.62246C11.9677 4.32384 12.2099 4.08164 12.5085 4.08164H19.3775C19.5209 4.08164 19.6584 4.13861 19.7599 4.2401C19.8614 4.34158 19.9183 4.4791 19.9183 4.62247V7.33773Z" fill="#373C38"/>
</svg>
