<svg width="41" height="40" viewBox="0 0 41 40" fill="none" xmlns="http://www.w3.org/2000/svg">
<circle cx="20.3706" cy="20" r="20" fill="#F7F7F7"/>
<g clip-path="url(#clip0_23482_561)">
<path d="M27.8004 20.98C27.8404 20.66 27.8704 20.34 27.8704 20C27.8704 19.66 27.8404 19.34 27.8004 19.02L29.9104 17.37C30.1004 17.22 30.1504 16.95 30.0304 16.73L28.0304 13.27C27.9404 13.11 27.7704 13.02 27.5904 13.02C27.5304 13.02 27.4704 13.03 27.4204 13.05L24.9304 14.05C24.4104 13.65 23.8504 13.32 23.2404 13.07L22.8604 10.42C22.8304 10.18 22.6204 10 22.3704 10H18.3704C18.1204 10 17.9104 10.18 17.8804 10.42L17.5004 13.07C16.8904 13.32 16.3304 13.66 15.8104 14.05L13.3204 13.05C13.2604 13.03 13.2004 13.02 13.1404 13.02C12.9704 13.02 12.8004 13.11 12.7104 13.27L10.7104 16.73C10.5804 16.95 10.6404 17.22 10.8304 17.37L12.9404 19.02C12.9004 19.34 12.8704 19.67 12.8704 20C12.8704 20.33 12.9004 20.66 12.9404 20.98L10.8304 22.63C10.6404 22.78 10.5904 23.05 10.7104 23.27L12.7104 26.73C12.8004 26.89 12.9704 26.98 13.1504 26.98C13.2104 26.98 13.2704 26.97 13.3204 26.95L15.8104 25.95C16.3304 26.35 16.8904 26.68 17.5004 26.93L17.8804 29.58C17.9104 29.82 18.1204 30 18.3704 30H22.3704C22.6204 30 22.8304 29.82 22.8604 29.58L23.2404 26.93C23.8504 26.68 24.4104 26.34 24.9304 25.95L27.4204 26.95C27.4804 26.97 27.5404 26.98 27.6004 26.98C27.7704 26.98 27.9404 26.89 28.0304 26.73L30.0304 23.27C30.1504 23.05 30.1004 22.78 29.9104 22.63L27.8004 20.98ZM25.8204 19.27C25.8604 19.58 25.8704 19.79 25.8704 20C25.8704 20.21 25.8504 20.43 25.8204 20.73L25.6804 21.86L26.5704 22.56L27.6504 23.4L26.9504 24.61L25.6804 24.1L24.6404 23.68L23.7404 24.36C23.3104 24.68 22.9004 24.92 22.4904 25.09L21.4304 25.52L21.2704 26.65L21.0704 28H19.6704L19.4804 26.65L19.3204 25.52L18.2604 25.09C17.8304 24.91 17.4304 24.68 17.0304 24.38L16.1204 23.68L15.0604 24.11L13.7904 24.62L13.0904 23.41L14.1704 22.57L15.0604 21.87L14.9204 20.74C14.8904 20.43 14.8704 20.2 14.8704 20C14.8704 19.8 14.8904 19.57 14.9204 19.27L15.0604 18.14L14.1704 17.44L13.0904 16.6L13.7904 15.39L15.0604 15.9L16.1004 16.32L17.0004 15.64C17.4304 15.32 17.8404 15.08 18.2504 14.91L19.3104 14.48L19.4704 13.35L19.6704 12H21.0604L21.2504 13.35L21.4104 14.48L22.4704 14.91C22.9004 15.09 23.3004 15.32 23.7004 15.62L24.6104 16.32L25.6704 15.89L26.9404 15.38L27.6404 16.59L26.5704 17.44L25.6804 18.14L25.8204 19.27ZM20.3704 16C18.1604 16 16.3704 17.79 16.3704 20C16.3704 22.21 18.1604 24 20.3704 24C22.5804 24 24.3704 22.21 24.3704 20C24.3704 17.79 22.5804 16 20.3704 16ZM20.3704 22C19.2704 22 18.3704 21.1 18.3704 20C18.3704 18.9 19.2704 18 20.3704 18C21.4704 18 22.3704 18.9 22.3704 20C22.3704 21.1 21.4704 22 20.3704 22Z" fill="#94A196"/>
</g>
<defs>
<clipPath id="clip0_23482_561">
<rect width="24" height="24" fill="white" transform="translate(8.37061 8)"/>
</clipPath>
</defs>
</svg>
